<?xml version="1.0" standalone="no"?>
<!DOCTYPE svg PUBLIC "-//W3C//DTD SVG 20010904//EN"
 "http://www.w3.org/TR/2001/REC-SVG-20010904/DTD/svg10.dtd">
<svg version="1.0" xmlns="http://www.w3.org/2000/svg"
 width="400.000000pt" height="420.000000pt" viewBox="0 0 400.000000 420.000000"
 preserveAspectRatio="xMidYMid meet">

<g transform="translate(0.000000,420.000000) scale(0.100000,-0.100000)"
fill="#056849" stroke="none">
<path d="M1869 3852 c-395 -263 -710 -564 -980 -937 -310 -430 -525 -935 -619
-1455 -28 -157 -60 -454 -60 -559 l0 -86 34 -22 c19 -12 85 -49 147 -82 571
-300 1271 -436 1927 -376 478 44 900 169 1345 398 l159 82 -7 70 c-18 216 -28
302 -45 410 -159 984 -653 1830 -1394 2384 -125 94 -367 252 -383 250 -5 0
-60 -35 -124 -77z m301 -65 c334 -223 579 -447 823 -753 470 -589 754 -1337
784 -2060 l6 -151 -149 -75 c-272 -138 -507 -228 -760 -292 -745 -189 -1553
-125 -2254 177 -102 44 -280 131 -345 169 l-40 24 3 99 c29 1040 531 2040
1352 2694 115 92 236 178 332 236 84 51 59 58 248 -68z"/>
<path d="M1823 3618 c-28 -14 -36 -34 -22 -60 9 -17 17 -19 50 -14 31 5 39 3
39 -9 0 -9 -12 -18 -30 -21 -38 -8 -39 -24 -2 -24 31 0 62 26 62 52 0 27 -26
40 -66 32 -29 -5 -36 -4 -32 7 3 8 15 15 27 17 12 2 20 9 18 15 -5 15 -19 17
-44 5z"/>
<path d="M2122 3582 c-47 -41 -53 -55 -19 -47 27 6 43 -4 48 -30 3 -11 8 -20
13 -20 10 0 35 85 36 118 0 28 -32 19 -78 -21z m39 -25 c-16 -16 -26 0 -10 19
9 11 15 12 17 4 2 -6 -1 -17 -7 -23z"/>
<path d="M1722 3552 c-36 -30 -42 -46 -13 -37 13 4 25 -5 46 -35 15 -22 31
-40 35 -40 20 0 16 17 -12 56 -25 35 -29 46 -19 58 22 26 -4 25 -37 -2z"/>
<path d="M2246 3506 c-20 -24 -36 -49 -36 -55 0 -19 17 -12 34 14 24 36 32 31
28 -16 -6 -62 10 -66 51 -13 21 26 37 51 37 56 0 15 -14 8 -37 -19 l-24 -28 3
49 c2 29 -1 51 -8 53 -6 2 -27 -16 -48 -41z"/>
<path d="M1632 3484 c-26 -18 -29 -46 -6 -65 12 -10 22 -10 47 -1 17 6 33 10
35 7 9 -9 -9 -37 -28 -42 -26 -7 -26 -23 0 -23 23 0 60 33 60 54 0 23 -31 48
-49 40 -9 -3 -26 -9 -39 -11 -17 -4 -21 -2 -16 10 3 8 14 17 25 20 21 6 26 27
6 27 -7 0 -23 -7 -35 -16z"/>
<path d="M2366 3403 l-40 -46 28 -23 c15 -13 37 -24 50 -24 29 0 66 39 66 71
0 25 -36 69 -56 69 -5 -1 -27 -21 -48 -47z m74 2 c11 -13 11 -20 0 -40 -16
-30 -36 -38 -61 -25 -19 11 -18 12 7 45 30 39 36 42 54 20z"/>
<path d="M1535 3396 c-28 -28 -25 -54 12 -91 30 -29 41 -31 71 -9 33 23 29 66
-9 98 -38 32 -44 32 -74 2z m65 -30 c26 -28 21 -56 -9 -56 -24 0 -56 43 -47
65 8 22 29 18 56 -9z"/>
<path d="M1908 3354 c-134 -91 -215 -159 -353 -299 -386 -390 -696 -935 -831
-1465 -68 -264 -73 -374 -19 -465 71 -122 198 -154 400 -102 604 155 1140 153
1819 -9 216 -52 341 -8 407 141 33 75 29 159 -15 338 -142 572 -448 1131 -841
1536 -148 152 -341 308 -452 365 l-31 16 -84 -56z m142 -181 c58 -98 55 -89
35 -127 -33 -60 7 -126 74 -126 32 0 39 -5 64 -46 25 -42 26 -47 12 -67 -40
-57 1 -137 69 -137 30 0 37 -5 61 -46 26 -45 27 -48 11 -75 -37 -63 -1 -129
71 -129 35 0 40 -4 65 -48 23 -42 25 -49 12 -66 -40 -55 0 -136 67 -136 34 0
40 -4 64 -46 26 -45 27 -48 11 -75 -20 -34 -20 -52 -1 -89 15 -29 41 -43 84
-44 18 -1 32 -14 54 -49 27 -44 28 -49 13 -66 -44 -49 0 -136 69 -134 31 1 37
-4 60 -45 25 -44 25 -49 11 -74 -37 -61 0 -130 70 -132 37 -2 40 -4 86 -85 26
-45 48 -87 48 -92 0 -5 -47 -9 -105 -9 -84 0 -105 3 -105 14 0 21 -58 66 -85
66 -27 0 -85 -45 -85 -66 0 -10 -15 -14 -57 -14 -54 0 -59 2 -75 30 -36 63
-104 64 -143 3 -18 -30 -24 -32 -75 -33 -51 0 -56 2 -68 29 -16 36 -64 58
-100 45 -15 -5 -36 -24 -47 -41 -18 -30 -24 -32 -75 -33 -51 0 -56 2 -68 29
-16 36 -64 58 -100 45 -15 -5 -36 -24 -47 -41 -18 -30 -24 -32 -75 -33 -51 0
-56 2 -68 29 -27 61 -109 63 -147 3 -18 -29 -24 -31 -76 -32 -53 0 -57 2 -63
25 -4 16 -20 32 -41 42 -45 21 -82 10 -110 -34 -18 -29 -25 -32 -72 -33 -48 0
-52 2 -71 34 -37 63 -124 57 -154 -10 -11 -23 -15 -24 -115 -24 -57 0 -103 4
-103 9 0 6 22 47 50 93 47 77 52 82 85 84 50 1 85 37 85 85 0 20 -7 42 -15 49
-21 17 -19 25 16 76 20 30 36 43 46 40 26 -10 79 20 93 53 11 27 10 37 -5 71
-17 39 -17 39 9 83 23 41 29 45 63 45 68 0 103 69 67 131 -15 26 -15 29 12 74
25 41 33 47 62 47 45 0 67 13 82 50 11 26 10 36 -5 70 -17 38 -17 39 7 82 21
38 28 44 67 49 52 7 81 36 81 82 0 17 -7 39 -17 49 -15 17 -15 21 10 66 23 42
30 47 65 50 71 5 107 77 69 135 -15 23 -14 27 13 71 26 41 34 46 65 46 48 0
85 36 85 83 0 19 -7 40 -15 47 -8 7 -15 16 -15 21 0 17 95 179 105 179 6 0 30
-35 55 -77z"/>
<path d="M1909 2728 c-45 -79 -129 -223 -185 -320 l-103 -178 73 0 72 0 74
128 c41 70 109 187 151 261 l77 134 -32 58 c-17 32 -34 59 -37 59 -4 0 -44
-64 -90 -142z"/>
<path d="M2143 2598 c-8 -10 -169 -287 -210 -360 -2 -5 29 -8 69 -8 l73 1 73
129 74 129 -35 61 c-25 46 -36 58 -44 48z"/>
<path d="M2263 2285 l-31 -55 69 0 c38 0 69 2 69 5 0 10 -62 105 -68 105 -4
-1 -21 -25 -39 -55z"/>
<path d="M1498 2018 c-200 -347 -321 -555 -329 -562 -19 -21 -6 -26 64 -26
l73 0 38 68 c21 37 90 156 153 265 l115 197 304 0 304 0 23 38 c13 20 29 47
36 60 l12 22 -379 0 -378 0 -36 -62z"/>
<path d="M2390 1972 c-30 -53 -107 -187 -171 -298 -64 -110 -122 -211 -128
-222 -11 -22 -10 -22 61 -22 l73 0 151 264 151 263 -31 56 c-17 31 -35 57 -41
57 -5 0 -35 -44 -65 -98z"/>
<path d="M1666 1778 c-104 -180 -196 -342 -196 -345 0 -2 33 -3 72 -1 l73 3
71 125 71 125 157 5 157 5 29 54 c17 30 30 58 30 63 0 4 -99 8 -220 8 l-219 0
-25 -42z"/>
<path d="M2500 1628 c-58 -100 -106 -186 -108 -190 -2 -4 28 -8 67 -8 l70 0
54 93 c30 50 64 110 77 132 l22 40 -33 57 c-19 32 -36 58 -39 58 -3 0 -52 -82
-110 -182z"/>
<path d="M1811 1496 c-17 -29 -31 -56 -31 -60 0 -3 30 -6 68 -6 l67 0 33 54
c17 30 32 57 32 60 0 3 -31 6 -69 6 l-70 0 -30 -54z"/>
<path d="M2753 1538 c-5 -7 -22 -34 -37 -60 l-27 -48 71 0 c38 0 70 2 70 4 0
3 -15 30 -34 61 -24 41 -36 52 -43 43z"/>
<path d="M1438 3311 l-33 -29 40 -45 c37 -42 65 -58 65 -38 0 5 -7 14 -15 21
-13 11 -12 16 6 41 15 22 18 33 10 48 -17 32 -39 32 -73 2z m48 -12 c10 -17
-23 -46 -38 -31 -8 8 -8 15 2 27 15 18 26 19 36 4z"/>
<path d="M2620 3242 c0 -4 5 -13 11 -19 7 -7 -2 -21 -31 -46 -59 -50 -42 -69
18 -20 28 23 47 33 50 25 2 -7 8 -12 13 -12 18 0 8 27 -19 53 -29 27 -42 33
-42 19z"/>
<path d="M1331 3202 c-11 -17 -21 -34 -20 -39 0 -4 21 -26 45 -47 30 -26 48
-36 55 -29 6 6 3 16 -10 27 -16 15 -18 22 -8 37 15 24 4 34 -22 18 -28 -18
-38 -4 -16 21 13 14 15 24 8 31 -7 7 -17 2 -32 -19z"/>
<path d="M2672 3104 c-23 -19 -42 -39 -42 -44 0 -15 48 -65 56 -58 3 4 -1 19
-10 32 -21 32 -20 36 4 36 11 0 20 -4 20 -10 0 -5 7 -10 16 -10 15 0 15 2 0
24 -21 33 -2 45 28 17 12 -12 25 -18 29 -15 8 8 -34 64 -48 64 -6 0 -30 -16
-53 -36z"/>
<path d="M1251 3104 c-27 -34 -26 -36 5 -73 33 -39 76 -42 99 -7 15 22 15 28
1 53 -13 26 -52 53 -76 53 -5 0 -18 -12 -29 -26z m67 -20 c25 -17 29 -52 8
-60 -32 -12 -78 38 -61 66 9 14 27 12 53 -6z"/>
<path d="M2760 3004 c-25 -20 -46 -39 -47 -42 -2 -4 8 -20 21 -37 27 -33 48
-27 27 7 -13 20 -11 25 23 52 33 28 48 57 29 55 -5 0 -28 -16 -53 -35z"/>
<path d="M1175 2980 c6 -28 5 -30 -24 -30 -17 0 -31 -4 -31 -9 0 -11 25 -21
54 -21 12 0 31 -7 42 -15 10 -8 22 -15 27 -15 13 0 7 30 -7 36 -7 3 -21 23
-31 45 -21 46 -39 52 -30 9z"/>
<path d="M2838 2904 c-27 -20 -48 -41 -48 -47 1 -16 36 -57 49 -57 16 0 14 11
-6 32 -24 27 -2 49 25 25 24 -22 37 -9 16 14 -16 17 -16 19 0 25 10 4 23 -2
34 -17 12 -14 21 -18 26 -11 3 6 -6 25 -21 41 l-28 31 -47 -36z"/>
<path d="M1082 2893 c-37 -54 -37 -57 -8 -49 21 5 36 1 61 -19 19 -14 38 -25
44 -25 22 0 10 20 -29 47 -32 22 -39 33 -35 51 7 30 -10 28 -33 -5z"/>
<path d="M1036 2823 c-12 -12 -6 -19 39 -51 46 -33 65 -39 65 -23 0 13 -97 81
-104 74z"/>
<path d="M2929 2806 c-12 -6 -31 -23 -42 -37 -22 -31 -12 -63 24 -74 33 -11
48 12 16 24 -33 13 -34 24 -5 51 29 27 52 22 56 -13 4 -32 18 -36 27 -7 14 44
-32 78 -76 56z"/>
<path d="M987 2752 c-21 -23 -22 -46 -1 -63 14 -11 21 -10 46 4 16 9 34 17 39
17 17 0 9 -28 -13 -43 -13 -8 -20 -18 -16 -22 20 -21 73 39 62 69 -12 31 -40
37 -67 16 -14 -11 -30 -20 -36 -20 -18 0 -13 19 9 32 11 7 20 16 20 20 0 15
-27 8 -43 -10z"/>
<path d="M2998 2684 c-26 -14 -48 -42 -48 -61 0 -17 41 -53 60 -53 26 0 80 48
80 71 0 22 -34 59 -52 59 -7 -1 -25 -7 -40 -16z m66 -29 c7 -20 -28 -55 -54
-55 -31 0 -37 30 -11 52 28 22 57 23 65 3z"/>
<path d="M916 2647 c-15 -19 -26 -37 -26 -40 0 -12 103 -76 112 -70 5 3 -1 16
-13 29 -27 29 -20 39 26 36 40 -3 47 13 11 22 -13 3 -31 17 -40 31 -22 34 -40
32 -70 -8z m48 -6 c9 -14 -4 -41 -19 -41 -21 0 -28 19 -15 35 14 17 26 19 34
6z"/>
<path d="M850 2545 c-12 -20 -21 -38 -19 -39 13 -12 111 -68 113 -65 20 26 36
56 36 66 0 21 -14 15 -30 -12 -20 -31 -48 -19 -31 13 7 13 7 23 2 27 -6 3 -15
-3 -21 -14 -6 -12 -16 -18 -25 -15 -13 5 -13 9 0 34 22 43 0 46 -25 5z"/>
<path d="M3078 2543 c-27 -14 -48 -33 -48 -40 0 -11 8 -10 34 6 46 29 52 26
22 -10 -41 -48 -35 -58 23 -38 45 16 48 5 7 -21 -35 -21 -47 -40 -26 -40 19 0
110 62 110 75 0 18 -20 23 -54 14 -40 -12 -44 -4 -14 29 25 27 27 52 5 52 -7
0 -33 -12 -59 -27z"/>
<path d="M810 2473 c0 -4 12 -19 27 -35 32 -34 28 -41 -17 -28 -22 6 -38 6
-44 0 -11 -11 30 -28 91 -37 56 -8 56 8 1 64 -40 41 -58 52 -58 36z"/>
<path d="M3195 2396 c-11 -7 -33 -20 -48 -30 -15 -9 -25 -21 -22 -26 3 -5 21
0 40 11 42 25 45 16 8 -23 -14 -15 -24 -30 -21 -33 3 -3 25 -1 49 4 42 9 43 9
23 -7 -12 -9 -30 -22 -40 -28 -11 -7 -15 -15 -11 -20 4 -4 32 5 62 22 65 34
70 60 12 58 -43 -1 -44 2 -16 32 37 39 9 69 -36 40z"/>
<path d="M750 2368 c0 -13 88 -68 109 -68 26 0 7 22 -41 47 -71 37 -68 36 -68
21z"/>
<path d="M720 2311 c0 -5 14 -15 32 -22 l32 -13 -48 -11 c-26 -5 -48 -14 -49
-20 -2 -9 88 -64 106 -65 21 0 3 27 -25 39 l-33 14 30 4 c90 11 96 22 25 58
-52 26 -70 31 -70 16z"/>
<path d="M3269 2220 c-49 -26 -63 -44 -50 -68 21 -40 35 -43 89 -20 29 12 52
26 52 30 0 12 -16 10 -57 -7 -72 -30 -88 9 -18 43 25 12 45 26 45 32 0 15 -20
12 -61 -10z"/>
<path d="M660 2191 c0 -5 20 -17 45 -27 31 -11 45 -22 45 -35 0 -23 -34 -25
-70 -4 -30 17 -50 19 -50 5 0 -13 77 -49 102 -50 10 0 25 11 33 24 22 33 7 59
-45 80 -46 18 -60 20 -60 7z"/>
<path d="M3323 2082 c-51 -21 -76 -42 -49 -42 9 0 26 5 38 11 31 17 32 4 3
-35 -37 -49 -25 -60 38 -35 29 11 56 25 61 30 16 15 0 20 -28 8 -36 -17 -43
-6 -17 27 24 30 27 54 9 53 -7 0 -32 -8 -55 -17z"/>
<path d="M597 2022 c-10 -10 -17 -28 -17 -40 0 -44 91 -82 117 -49 6 6 13 26
16 43 5 26 2 33 -17 42 -17 7 -27 7 -35 -1 -19 -19 -13 -39 9 -32 24 8 29 -22
5 -31 -43 -17 -95 27 -62 51 18 13 23 35 9 35 -5 0 -16 -8 -25 -18z"/>
<path d="M3371 1931 c-41 -15 -67 -41 -42 -41 24 0 121 42 116 51 -8 12 -21
10 -74 -10z"/>
<path d="M550 1910 c0 -6 14 -13 30 -16 31 -7 40 -22 18 -28 -7 -3 -25 -7 -40
-10 -46 -10 -33 -33 28 -51 69 -20 93 -13 39 11 l-40 17 48 14 c27 8 47 19 44
26 -3 10 -88 45 -114 46 -7 1 -13 -4 -13 -9z"/>
<path d="M3369 1840 c-24 -23 -28 -33 -20 -48 15 -28 39 -45 52 -36 8 5 4 13
-12 26 l-24 18 24 20 c13 11 32 20 42 20 24 0 35 -25 20 -44 -14 -17 -2 -29
16 -15 32 28 1 89 -46 89 -12 0 -36 -13 -52 -30z"/>
<path d="M516 1781 c-8 -12 -1 -16 52 -31 24 -6 50 -14 58 -17 8 -3 14 1 14 9
0 9 -18 20 -42 27 -24 7 -50 14 -60 17 -9 3 -19 0 -22 -5z"/>
<path d="M507 1712 c-29 -32 -21 -69 20 -91 37 -19 60 -13 97 27 42 44 45 55
11 46 -14 -3 -25 -2 -25 3 0 12 -44 33 -69 33 -10 0 -25 -8 -34 -18z m78 -26
c24 -17 13 -46 -18 -46 -33 0 -62 23 -54 44 8 19 46 21 72 2z"/>
<path d="M3380 1705 c0 -8 6 -15 14 -15 20 0 30 -38 16 -55 -27 -32 -1 -32 53
1 70 44 73 61 10 69 -27 3 -58 8 -70 11 -16 3 -23 0 -23 -11z m88 -27 c-6 -18
-28 -21 -28 -4 0 9 7 16 16 16 9 0 14 -5 12 -12z"/>
<path d="M3517 1604 c-3 -3 -3 -12 -1 -19 5 -13 -24 -24 -61 -25 -27 0 -49
-15 -41 -28 4 -6 22 -6 53 0 40 9 48 8 60 -8 19 -25 26 -11 18 35 -7 40 -17
56 -28 45z"/>
<path d="M472 1578 c-20 -20 -13 -55 14 -77 51 -40 106 -19 108 42 1 30 -2 37
-22 42 -12 3 -27 3 -32 0 -13 -8 -13 -45 0 -45 6 0 10 5 10 10 0 6 5 10 10 10
17 0 11 -40 -6 -47 -20 -7 -66 8 -71 23 -2 7 3 19 12 27 8 9 15 18 15 21 0 11
-26 6 -38 -6z"/>
<path d="M446 1461 c-4 -6 6 -13 21 -17 15 -3 33 -7 38 -8 6 -2 -9 -13 -32
-25 -65 -33 -61 -38 51 -57 30 -5 38 -4 34 7 -2 8 -19 15 -36 17 -43 4 -40 16
8 32 47 16 52 36 10 44 -16 3 -43 9 -59 12 -16 3 -32 1 -35 -5z"/>
<path d="M3476 1461 c-22 -3 -41 -12 -44 -20 -4 -11 6 -12 54 -6 64 8 74 11
74 26 0 10 -22 10 -84 0z"/>
<path d="M3465 1365 c-30 -29 -31 -36 -7 -65 31 -38 97 -27 122 21 7 12 4 24
-11 43 -27 34 -71 35 -104 1z m93 -27 c4 -21 -41 -42 -69 -33 -21 7 -26 41 -6
49 26 11 72 1 75 -16z"/>
<path d="M443 1325 c-26 -18 -31 -66 -10 -84 27 -22 76 -25 97 -6 23 21 26 67
7 84 -25 20 -71 23 -94 6z m77 -30 c20 -25 4 -47 -31 -43 -38 4 -62 33 -39 48
22 14 56 12 70 -5z"/>
<path d="M3478 1223 c-37 -9 -18 -26 22 -19 49 8 51 -2 5 -33 -52 -35 -47 -55
11 -47 26 3 55 6 65 6 11 0 19 6 19 14 0 11 -9 14 -37 10 l-38 -5 33 29 c45
40 41 52 -15 51 -27 -1 -56 -3 -65 -6z"/>
<path d="M410 1190 c0 -5 11 -12 25 -16 34 -8 35 -44 1 -44 -25 0 -43 -15 -29
-23 5 -3 33 -6 63 -8 55 -4 82 11 38 21 -34 9 -31 44 5 48 33 4 35 17 5 26
-36 9 -108 7 -108 -4z"/>
<path d="M406 1058 c-22 -31 -20 -43 10 -67 32 -25 61 -27 92 -5 35 25 24 84
-17 84 -11 0 -10 -4 4 -20 30 -33 -10 -63 -59 -44 -21 8 -21 40 0 48 8 3 12
10 9 16 -10 16 -23 12 -39 -12z"/>
<path d="M3480 1059 c-9 -16 -9 -28 1 -50 9 -24 17 -29 38 -27 20 2 28 11 36
36 12 43 39 44 30 1 -5 -24 -4 -30 6 -27 19 6 24 55 8 74 -21 25 -53 13 -65
-26 -14 -42 -30 -38 -27 8 3 36 -11 42 -27 11z"/>
<path d="M1324 1003 c-4 -16 -22 -51 -40 -79 -19 -28 -34 -55 -34 -60 0 -11
98 85 111 108 6 12 5 24 -3 38 -17 27 -26 25 -34 -7z"/>
<path d="M1580 971 c0 -5 7 -14 15 -21 22 -18 9 -30 -36 -30 -40 0 -49 -9 -25
-29 10 -8 24 -7 55 4 24 8 41 10 39 5 -2 -5 -47 -59 -100 -119 -87 -98 -118
-151 -89 -151 5 0 40 43 77 95 37 52 70 95 74 95 4 0 13 -14 20 -30 13 -33 12
-36 -39 -92 -38 -43 -15 -47 25 -5 39 41 61 49 44 17 -6 -11 -15 -20 -20 -20
-6 0 -10 -4 -10 -9 0 -4 18 -8 40 -8 22 0 40 4 40 8 0 5 -4 9 -8 9 -5 0 -9 20
-9 45 0 35 4 46 19 51 22 7 24 23 3 30 -12 5 -13 9 -4 21 10 11 9 17 -4 30
-14 15 -18 15 -44 -2 l-28 -18 25 28 c14 15 35 31 48 36 30 12 26 45 -6 42
-12 -2 -22 2 -22 8 0 6 -9 8 -19 4 -11 -3 -22 -1 -26 5 -8 12 -35 13 -35 1z"/>
<path d="M1890 961 c0 -11 -4 -23 -10 -26 -5 -3 -15 -15 -21 -27 -8 -15 -8
-19 0 -14 6 4 11 1 11 -8 0 -8 -25 -37 -56 -64 -37 -33 -52 -52 -44 -57 7 -5
21 4 35 21 28 35 40 29 20 -10 -18 -33 -18 -36 -6 -36 5 0 18 14 29 32 l21 32
-1 -32 c-1 -18 -5 -35 -10 -38 -11 -7 -10 -24 1 -24 4 0 24 11 44 24 l36 25 7
-35 c3 -19 4 -64 2 -99 -3 -43 0 -64 7 -62 5 2 11 34 13 70 3 58 5 67 22 67
30 0 44 36 25 62 -8 13 -16 36 -16 53 -1 24 -3 26 -6 7 -3 -13 0 -36 5 -51 12
-33 -1 -62 -18 -45 -6 6 -10 36 -8 70 3 53 5 59 25 59 13 0 22 5 22 10 0 6
-12 9 -26 8 -20 -2 -24 2 -20 17 6 25 -19 48 -35 32 -7 -7 -19 -12 -27 -12
-12 0 -11 3 2 18 21 23 21 38 1 46 -23 9 -24 8 -24 -13z m43 -75 c-10 -13 -22
-22 -26 -19 -9 6 21 43 35 43 5 0 1 -11 -9 -24z m-63 -51 c0 -8 -4 -15 -10
-15 -5 0 -10 7 -10 15 0 8 5 15 10 15 6 0 10 -7 10 -15z m60 -21 c0 -8 -4 -12
-10 -9 -5 3 -10 10 -10 16 0 5 5 9 10 9 6 0 10 -7 10 -16z m-18 -46 c-7 -7
-12 -8 -12 -2 0 14 12 26 19 19 2 -3 -1 -11 -7 -17z"/>
<path d="M2810 966 c0 -8 6 -16 13 -19 17 -6 -19 -45 -47 -49 -13 -2 -22 -11
-24 -26 -3 -22 -4 -23 -17 -5 -12 16 -13 13 -12 -22 0 -22 6 -47 14 -56 11
-13 9 -19 -12 -39 -14 -13 -25 -20 -25 -15 0 4 -9 0 -20 -10 -23 -21 -26 -35
-7 -35 15 0 74 54 104 95 24 34 43 27 24 -9 -8 -13 -11 -29 -7 -34 3 -6 -10
-19 -29 -31 -58 -34 -45 -50 34 -41 44 5 46 6 43 35 -2 17 -9 36 -15 43 -7 10
-4 17 12 28 13 10 20 22 17 31 -4 8 7 31 24 51 33 40 36 52 18 70 -8 8 -17 8
-31 0 -17 -9 -19 -8 -13 7 7 20 -10 45 -30 45 -8 0 -14 -6 -14 -14z m-40 -150
c0 -8 -4 -18 -10 -21 -5 -3 -10 3 -10 14 0 12 5 21 10 21 6 0 10 -6 10 -14z
m57 8 c-3 -3 -12 -4 -19 -1 -8 3 -5 6 6 6 11 1 17 -2 13 -5z"/>
<path d="M2184 959 c-3 -5 -3 -13 0 -18 7 -11 55 0 58 14 4 12 -51 15 -58 4z"/>
<path d="M2484 884 c-18 -68 -27 -76 -96 -98 -31 -9 -20 -26 17 -26 39 0 44
-13 19 -48 -9 -13 -13 -26 -10 -30 11 -11 40 13 66 56 14 22 40 61 58 87 17
25 32 56 32 68 0 18 -3 17 -16 -10 -25 -49 -40 -42 -36 17 5 71 -12 62 -34
-16z"/>
<path d="M2734 936 c-6 -17 2 -36 17 -36 12 0 12 37 -1 45 -6 3 -13 -1 -16 -9z"/>
<path d="M2250 919 c0 -7 -10 -9 -25 -5 -17 4 -25 2 -25 -7 0 -7 -14 -26 -30
-42 -25 -24 -33 -27 -39 -16 -7 11 -13 6 -25 -17 -17 -33 -21 -62 -9 -62 4 0
29 21 55 47 37 36 46 41 41 24 -3 -13 -12 -25 -19 -28 -21 -8 -17 -23 6 -23
11 0 23 7 26 15 6 15 25 21 23 8 -3 -20 3 -23 21 -13 11 6 20 17 20 24 0 19
-25 27 -39 13 -8 -8 -11 -8 -11 0 0 6 16 23 35 37 39 30 46 56 15 56 -11 0
-20 -5 -20 -11z m-10 -34 c-7 -9 -15 -13 -17 -11 -7 7 7 26 19 26 6 0 6 -6 -2
-15z"/>
<path d="M1303 880 c-3 -13 -36 -35 -89 -62 -74 -38 -82 -45 -67 -55 27 -21
47 -15 83 22 45 47 70 46 34 0 -31 -41 -23 -63 8 -25 l21 25 -7 -25 c-4 -14
-9 -38 -10 -55 -2 -16 -6 -38 -11 -47 -11 -26 17 -33 54 -13 17 8 31 19 31 24
0 18 -14 20 -32 4 -19 -17 -24 -8 -9 16 6 9 6 22 0 33 -8 15 -3 25 25 50 44
39 48 63 9 54 l-28 -7 24 19 c21 17 22 21 10 40 -17 27 -39 28 -46 2z"/>
<path d="M1572 768 c-7 -7 -12 -16 -12 -20 0 -12 28 -10 36 3 10 17 -10 31
-24 17z"/>
<path d="M2217 758 c-7 -27 -5 -30 17 -22 9 4 16 13 14 22 -5 25 -25 25 -31 0z"/>
<path d="M2155 740 c-29 -30 -29 -54 0 -30 13 10 15 9 15 -8 0 -29 10 -52 24
-52 20 0 77 40 71 50 -4 6 -17 2 -32 -10 -25 -20 -49 -18 -37 2 4 6 8 26 10
44 3 43 -13 44 -51 4z"/>
<path d="M2502 721 c-10 -6 -7 -10 13 -15 22 -6 25 -9 15 -21 -15 -19 -1 -19
23 -1 21 16 22 32 1 40 -21 8 -36 7 -52 -3z"/>
<path d="M1918 519 c-36 -20 -11 -90 27 -75 9 3 15 0 15 -9 0 -20 -20 -29 -33
-16 -14 14 -27 14 -27 1 0 -5 10 -15 22 -21 19 -10 25 -8 45 15 28 33 29 70 3
96 -23 23 -28 24 -52 9z m40 -37 c2 -14 -2 -22 -12 -22 -19 0 -29 17 -22 36 8
22 30 12 34 -14z"/>
<path d="M2146 514 c-22 -22 -21 -87 3 -108 47 -43 95 45 55 102 -18 26 -37
28 -58 6z m42 -16 c17 -17 15 -63 -4 -79 -20 -16 -34 2 -34 47 0 43 14 56 38
32z"/>
<path d="M1822 508 c-16 -16 -15 -29 1 -25 8 1 13 -13 15 -40 5 -65 22 -51 22
17 0 61 -11 75 -38 48z"/>
<path d="M2016 495 c-8 -33 0 -48 22 -36 23 12 42 3 42 -19 0 -25 -17 -35 -36
-19 -21 17 -31 2 -11 -18 13 -14 21 -14 42 -5 44 20 28 82 -22 82 -13 0 -23 4
-23 9 0 12 27 22 44 15 8 -3 17 -1 21 5 4 7 -8 11 -33 11 -34 0 -41 -4 -46
-25z"/>
</g>
</svg>
